<svg width="142" height="28" viewBox="0 0 142 28" fill="none" xmlns="http://www.w3.org/2000/svg">
<path d="M9.66184 27.1668H4.34795V13.7783H0.728027V9.41933H4.34781V6.31759C4.34781 2.64202 5.94885 0.00592041 11.2484 0.00592041C12.3692 0.00592041 14.1289 0.234254 14.1289 0.234254V4.28183H12.2806C10.3974 4.28183 9.66213 4.86079 9.66213 6.4614V9.41933H14.0584L13.6669 13.7783H9.66198L9.66184 27.1668ZM21.8547 9.07099C21.7773 9.07099 21.6976 9.07384 21.6188 9.07584C16.6914 9.07584 14.437 12.8218 14.437 18.1393C14.437 24.838 17.3613 27.519 21.6573 27.519C24.1152 27.519 25.73 26.4734 26.7115 24.5221V27.1686H31.7658V9.42119H26.7115V12.1505C25.9101 10.3945 24.2501 9.0918 21.8547 9.07099ZM23.1398 13.2647C25.2094 13.2647 26.4515 14.7236 26.4515 17.2052L26.4563 19.7398C26.4563 21.4124 25.4303 23.3692 23.1398 23.3692C19.6185 23.3692 19.7126 19.5263 19.7126 18.2464C19.7126 13.941 21.5887 13.2647 23.1398 13.2647ZM33.807 18.2958C33.807 16.1392 33.7049 9.08253 42.8014 9.08253C46.4529 9.08253 47.9777 10.256 47.9777 10.256L46.7522 14.0976C46.7522 14.0976 45.2294 13.2501 43.2452 13.2501C40.7039 13.2501 39.0822 14.7391 39.0822 17.359L39.0851 19.2375C39.0851 21.7549 40.6497 23.4353 43.2505 23.4353C45.0581 23.4353 46.7241 22.5799 46.7241 22.5799L47.9465 26.3412C47.9465 26.3412 46.5524 27.5221 42.827 27.5221C34.1656 27.5221 33.8071 21.1909 33.8071 18.2958H33.807ZM77.6127 9.07584C82.5402 9.07584 84.8301 12.8218 84.8301 18.1393C84.8301 24.838 81.9057 27.519 77.6098 27.519C75.1519 27.519 73.3349 26.4735 72.3534 24.5221V27.1686L67.3627 27.1666V0.54554L72.6615 0.0784683V11.91C73.4263 9.84008 75.9396 9.07584 77.6129 9.07584H77.6127ZM76.1272 13.2647C74.0577 13.2647 72.6615 14.7236 72.6615 17.2052L72.6566 19.7398C72.6535 21.4124 73.6235 23.3692 76.1272 23.3692C79.6485 23.3692 79.5545 19.5263 79.5545 18.2464C79.5545 13.941 77.6784 13.2647 76.1272 13.2647ZM57.1716 9.09052C51.5828 9.09052 48.6323 12.1702 48.6323 17.643V18.6599C48.6323 25.7631 52.7757 27.5919 57.7155 27.5919C62.5169 27.5919 64.6902 26.2346 64.6902 26.2346L63.6987 22.6201C63.6987 22.6201 61.1422 23.7194 58.3508 23.7194C55.457 23.7194 54.2125 22.974 53.8935 20.1633H65.1138V17.2635C65.1138 11.3268 61.8025 9.09037 57.1714 9.09037L57.1716 9.09052ZM57.3062 12.7099C59.2408 12.7099 60.4943 13.9089 60.4255 16.6895H53.9032C54.0163 13.7629 55.3681 12.7101 57.3062 12.7101V12.7099ZM95.3957 9.06614C89.6565 9.06614 86.6351 12.3349 86.6351 18.1928C86.6351 26.2301 91.8434 27.5238 95.4053 27.5238C100.62 27.5238 104.089 24.6865 104.089 18.2658C104.089 11.5829 100.188 9.06614 95.3957 9.06614V9.06614ZM95.3235 13.2792C97.8471 13.2792 98.8471 15.1881 98.8471 17.361V19.2291C98.8471 21.8614 97.4479 23.3839 95.3139 23.3839C93.3182 23.3839 91.9156 21.9597 91.9156 19.2291V17.361C91.9156 14.4488 93.5846 13.2792 95.3235 13.2792V13.2792ZM114.645 9.06614C108.906 9.06614 105.884 12.3349 105.884 18.1928C105.884 26.2301 111.093 27.5238 114.655 27.5238C119.869 27.5238 123.338 24.6865 123.338 18.2658C123.338 11.5829 119.437 9.06614 114.645 9.06614V9.06614ZM114.573 13.2792C117.097 13.2792 118.096 15.1881 118.096 17.361V19.2291C118.096 21.8614 116.697 23.3839 114.563 23.3839C112.568 23.3839 111.165 21.9597 111.165 19.2291V17.361C111.165 14.4488 112.834 13.2792 114.573 13.2792V13.2792ZM125.341 27.1668V0.54554L130.655 0.0784683V17.9217L135.927 9.41933H141.539L136.039 18.2253L141.751 27.1668H136.123L130.655 18.4847V27.1668H125.341Z" fill="#B5B5D4"/>
</svg>
