<svg width="135" height="35" viewBox="0 0 135 35" fill="none" xmlns="http://www.w3.org/2000/svg">
<path d="M44.1625 14.0919C44.1625 11.6652 41.8277 9.0878 37.7872 9.0878C33.25 9.0878 28.2657 12.4518 27.5039 19.1629C26.7256 25.9411 30.8986 28.9536 35.1046 28.9536C39.3107 28.9536 41.5131 27.2967 43.7651 25.0875C41.8277 22.6273 39.3272 23.7654 38.847 24.0164C38.3171 24.2842 37.6382 24.6524 36.2472 24.6524C34.6244 24.6524 32.9685 23.916 32.9685 20.8533C43.3677 19.8156 44.1625 16.5186 44.1625 14.0919ZM39.0126 14.4936C38.9464 15.2467 38.6483 16.5354 33.3825 17.255C34.4919 13.2718 36.6115 12.9706 37.5885 12.9706C38.4993 12.9706 39.0789 13.6902 39.0126 14.4936ZM21.3936 15.1463C21.3936 15.1463 19.1581 22.2424 18.9759 22.8282C18.9097 22.2257 17.2703 9.48946 17.2703 9.48946C13.4617 9.48946 11.4249 12.2342 10.3485 15.1295C10.3485 15.1295 7.63281 22.2424 7.40098 22.8449C7.38443 22.2926 6.987 15.2132 6.987 15.2132C6.75517 11.6652 3.54268 9.5062 0.942871 9.5062L4.08913 28.8029C8.07991 28.7862 10.2326 26.0582 11.3586 23.1629C11.3586 23.1629 13.7597 16.8868 13.8591 16.6023C13.8757 16.8701 15.5813 28.8029 15.5813 28.8029C19.5886 28.8029 21.7413 26.2423 22.9005 23.4474L28.514 9.5062C24.5564 9.5062 22.4699 12.2342 21.3936 15.1463ZM58.8672 9.05432C56.3998 9.05432 54.5121 10.4099 52.9224 12.4015V12.3848L54.3465 0.786682C51.0678 0.786682 48.4017 3.66529 47.8884 7.94974L45.4045 28.6523C47.2922 28.6523 49.2959 28.1 50.3723 26.6942C51.3327 27.9494 52.7734 28.9536 54.9095 28.9536C60.4403 28.9536 64.2324 22.46 64.2324 16.368C64.1993 10.8116 61.5332 9.05432 58.8672 9.05432ZM58.3538 19.0123C57.7743 22.4097 55.9031 24.7193 54.0981 24.7193C52.2766 24.7193 51.4983 23.8993 51.4983 23.8993C51.846 20.9202 52.0613 19.096 52.7237 17.5228C53.3861 15.9496 54.9592 13.4392 56.5986 13.4392C58.2048 13.4392 58.9334 15.5981 58.3538 19.0123ZM78.0428 9.5062H74.1845L74.201 9.30537C74.466 6.76148 75.0621 5.42259 77.0327 5.20502C78.374 5.07113 78.9701 4.36821 79.1192 3.59835C79.2351 2.99585 79.5994 0.903836 79.5994 0.903836C71.8496 0.853627 69.4154 4.23432 68.7862 9.38905L68.7696 9.5062H68.6868C67.4283 9.5062 66.0373 10.9455 65.8055 12.7697L65.7227 13.4392H68.3059L66.1367 31.5477L65.4743 34.7945C65.5571 34.7945 65.6565 34.8112 65.7393 34.8112C69.3657 34.6773 71.684 31.782 72.1974 27.5812L73.8864 13.4392H75.0953C76.2875 13.4392 77.6785 12.2342 77.9269 10.2259L78.0428 9.5062ZM98.1126 9.17148C93.6582 9.17148 89.4521 12.4852 88.1605 17.6902C86.8689 22.8951 88.8229 29.054 95.3804 29.054C101.921 29.054 105.697 22.6441 105.697 17.3052C105.697 11.9999 102.137 9.17148 98.1126 9.17148ZM99.9176 18.845C99.6858 21.2047 98.6591 24.7863 95.844 24.7863C93.0124 24.7863 93.4098 20.6022 93.6913 18.6106C93.9894 16.4852 95.1651 13.4559 97.6987 13.4559C99.9673 13.4559 100.183 16.1839 99.9176 18.845ZM127.704 15.1463C127.704 15.1463 125.469 22.2424 125.286 22.8282C125.22 22.2257 123.581 9.48946 123.581 9.48946C119.772 9.48946 117.735 12.2342 116.659 15.1295C116.659 15.1295 113.943 22.2424 113.711 22.8449C113.695 22.2926 113.297 15.2132 113.297 15.2132C113.066 11.6652 109.853 9.5062 107.253 9.5062L110.383 28.8029C114.374 28.7862 116.527 26.0582 117.653 23.1629C117.653 23.1629 120.054 16.8868 120.136 16.6023C120.153 16.8701 121.859 28.8029 121.859 28.8029C125.866 28.8029 128.019 26.2423 129.178 23.4474L134.791 9.5062C130.85 9.5062 128.764 12.2342 127.704 15.1463ZM81.6858 0.903836L78.4402 27.3636L77.7778 30.6272C77.8606 30.6272 77.96 30.6439 78.0428 30.6439C81.5368 30.5937 84.0207 27.4975 84.4843 23.598L86.3556 8.41835C86.9186 3.78245 84.1863 0.903836 81.6858 0.903836Z" fill="#B5B5D4"/>
</svg>
