<svg width="133" height="30" viewBox="0 0 133 30" fill="none" xmlns="http://www.w3.org/2000/svg">
<path d="M22.7989 29.521L14.1362 29.3608C11.3314 29.3051 8.51963 29.4165 5.7699 28.8384C1.58674 27.9748 1.2904 23.74 0.980281 20.1877C0.553005 15.1937 0.718402 10.1092 1.52471 5.15699C1.97955 2.3779 3.77136 0.720199 6.54176 0.539106C15.8936 -0.115616 25.3074 -0.0389999 34.6386 0.267466C35.6241 0.295326 36.6164 0.448559 37.5882 0.622688C42.3847 1.47243 42.5018 6.27141 42.8119 10.3112C43.1221 14.3928 42.9911 18.4952 42.3985 22.5489C41.9229 25.9061 41.0133 28.72 37.1747 28.9917C32.3644 29.3469 27.6643 29.6325 22.8403 29.5419C22.8403 29.521 22.8127 29.521 22.7989 29.521V29.521ZM17.7061 21.0236C21.331 18.9201 24.887 16.8514 28.4913 14.7619C24.8595 12.6584 21.3103 10.5898 17.7061 8.50025V21.0236Z" fill="#B5B5D4"/>
<path d="M112.295 25.7042C112.13 26.3867 111.985 26.9231 111.84 27.4942H108.449V1.06128H112.405V10.8126C112.612 10.5479 112.715 10.4364 112.805 10.318C113.48 9.37773 114.356 8.76479 115.486 8.52797C117.284 8.17275 118.821 8.97375 119.366 10.722C119.717 11.8086 119.945 12.9718 119.972 14.1071C120.027 17.0255 119.986 19.937 119.883 22.8554C119.841 23.7469 119.572 24.6594 119.235 25.4952C118.125 28.2534 114.5 28.6713 112.702 26.2823C112.591 26.136 112.488 25.9758 112.295 25.7042V25.7042ZM112.488 18.4325V23.2663C112.488 24.0534 112.901 24.534 113.68 24.7151C114.445 24.8962 115.065 24.5967 115.375 23.8793C115.506 23.5798 115.637 23.2663 115.644 22.9529C115.72 19.9997 115.789 17.0464 115.81 14.0862C115.81 13.536 115.679 12.9648 115.513 12.4285C115.203 11.4603 114.349 11.1748 113.508 11.7389C112.874 12.1708 112.488 12.7837 112.488 13.5986V18.4325ZM101.737 8.9041H105.879V27.5081H102.647C102.53 26.8047 102.412 26.0803 102.275 25.2305C102.054 25.5579 101.923 25.7668 101.785 25.9758C100.71 27.543 99.1873 28.0793 97.3886 27.7937C95.8517 27.543 94.9283 26.345 94.7215 24.3808C94.6595 23.7957 94.6319 23.2037 94.6319 22.6186C94.6182 18.2653 94.6319 13.8981 94.6319 9.54489V8.89016H98.822V9.64937C98.822 13.8564 98.8082 18.0564 98.8358 22.2633C98.8358 22.8624 98.8978 23.4823 99.0012 24.0813C99.1183 24.6942 99.5594 24.9171 100.152 24.8753C101.11 24.7987 101.772 24.0813 101.772 23.1201V9.72599C101.737 9.45435 101.737 9.2036 101.737 8.9041V8.9041ZM73.22 8.89016H77.3824V9.67723C77.3824 13.8633 77.3687 18.0424 77.3962 22.2146C77.3962 22.8136 77.4514 23.4335 77.5754 24.0186C77.7339 24.7081 78.1336 24.931 78.8159 24.8405C79.76 24.7081 80.332 24.0464 80.3389 23.0783V9.75385V8.91803H84.4807V27.5081H81.2624C81.1452 26.8186 81.0281 26.1081 80.8764 25.2096C80.6697 25.5231 80.5525 25.7042 80.4354 25.8922C79.3603 27.4873 77.8511 28.0723 76.011 27.7868C74.5362 27.5639 73.6334 26.4634 73.3578 24.6594C73.282 24.0952 73.2268 23.538 73.2268 22.9738C73.2131 18.4534 73.2131 13.9121 73.2131 9.39166L73.22 8.89016ZM71.0836 18.8225C71.0698 19.4494 71.0284 20.0763 70.994 20.7031C70.8355 22.5837 70.7597 25.2514 69.2573 26.6236C68.2994 27.4873 67.0865 27.8007 65.8322 27.8425C65.274 27.8564 64.7089 27.8564 64.1507 27.7798C61.5112 27.3758 60.2845 26.1987 59.8435 23.2663C59.3404 19.8813 59.2991 16.4404 59.8986 13.0554C60.5189 9.55186 62.6552 8.31205 65.977 8.5419C69.0781 8.76479 70.4633 10.8195 70.8286 13.7449C71.0284 15.4235 71.1249 17.123 71.0836 18.8225V18.8225ZM66.866 18.1817C66.866 16.9907 66.8935 15.7927 66.8522 14.6016C66.8246 13.9121 66.735 13.2156 66.5903 12.533C66.4249 11.7459 65.9287 11.3698 65.3085 11.3837C64.702 11.3976 64.2747 11.7738 64.0542 12.5051C63.9784 12.7767 63.8957 13.0554 63.8957 13.327C63.8957 15.1937 63.8819 17.0673 63.8681 18.934C63.8544 20.6753 63.6338 22.5002 64.1783 24.1648C64.3437 24.6733 64.7709 24.9519 65.3291 24.9519C65.8736 24.9519 66.2319 24.6803 66.4318 24.1927C66.5903 23.8166 66.7281 23.4056 66.7281 23.0017C66.7764 21.3997 66.866 19.7907 66.866 18.1817ZM53.7652 14.6782C54.1304 12.8743 54.475 11.1121 54.854 9.3429C55.3295 7.09314 55.8602 4.84338 56.3288 2.58666C56.446 2.03641 56.6665 1.90407 57.1834 1.918C58.2929 1.95979 59.4231 1.93193 60.6084 1.93193C60.2225 3.36676 59.8435 4.73194 59.4713 6.07622C58.2929 10.2971 57.1144 14.532 55.9498 18.7668C55.8602 19.0942 55.8188 19.4494 55.8188 19.7977C55.805 22.1101 55.8188 24.4156 55.8188 26.728V27.4803H51.7735C51.7597 27.2713 51.7322 27.0624 51.7322 26.8534C51.7322 25.544 51.6288 24.2275 51.7459 22.932C52.0423 19.8186 51.0637 16.9559 50.2711 14.0583C49.2236 10.2275 48.1623 6.38269 47.1148 2.55183C47.0597 2.37074 47.039 2.17571 46.9839 1.95282H51.1119C51.9802 6.1807 52.8555 10.4086 53.7652 14.6782ZM132.914 19.533H125.94C126.016 20.9469 126.044 22.2912 126.188 23.6216C126.292 24.5479 126.795 24.945 127.587 24.9519C128.414 24.9658 128.897 24.5479 129.09 23.6285C129.152 23.329 129.193 23.0295 129.221 22.7231C129.248 22.4514 129.262 22.1589 129.283 21.7688C130.461 21.8315 131.612 21.9012 132.749 21.9499C133.411 23.935 132.218 26.4843 130.213 27.2713C128.635 27.8982 127.015 27.8982 125.403 27.4176C124.21 27.0624 123.321 26.2962 122.922 25.1191C122.55 24.0186 122.198 22.8693 122.122 21.7201C121.916 18.8852 121.84 16.0225 122.267 13.1807C122.343 12.7071 122.474 12.2544 122.618 11.7947C123.197 9.90012 124.459 8.73693 126.409 8.5419C127.47 8.43743 128.566 8.47922 129.613 8.66031C131.309 8.95982 132.211 10.1927 132.604 11.8086C132.783 12.5678 132.914 13.3479 132.942 14.121C132.949 15.8972 132.914 17.6594 132.914 19.533ZM128.952 17.0882C128.952 15.6882 128.966 14.3718 128.938 13.0484C128.938 12.735 128.821 12.4076 128.704 12.1081C128.469 11.523 127.98 11.3628 127.394 11.3628C126.809 11.3628 126.436 11.6623 126.292 12.1986C125.851 13.8076 125.995 15.4514 126.009 17.1021C127.064 17.0882 128.021 17.0882 128.952 17.0882V17.0882Z" fill="#B5B5D4"/>
<path d="M87.6786 5.34515H83.5781V1.98792H95.8174V5.32425H91.7446V27.4806H87.6855L87.6786 5.34515Z" fill="#B5B5D4"/>
</svg>
