<svg width="114" height="38" viewBox="0 0 114 38" fill="none" xmlns="http://www.w3.org/2000/svg">
<path d="M14.0359 0H15.0493C18.5677 0.0773043 22.0288 1.50743 24.5146 4.03915C23.5968 4.98613 22.6598 5.89445 21.7611 6.84143C20.3652 5.56591 18.6825 4.58028 16.8468 4.23241C14.1315 3.65263 11.2059 4.17443 8.9304 5.73984C6.44457 7.38256 4.76186 10.1655 4.39855 13.1417C3.997 16.0793 4.81923 19.1715 6.71228 21.4519C8.52884 23.6744 11.3015 25.0659 14.1697 25.1625C16.8468 25.3172 19.6386 24.4861 21.589 22.5922C23.1187 21.2587 23.8262 19.2294 24.0557 17.2582C20.8815 17.2582 17.7073 17.2775 14.5331 17.2582V13.277H27.8991C28.5875 17.5481 27.5932 22.3603 24.3807 25.4138C22.2391 27.5783 19.2752 28.8538 16.254 29.1051C13.3284 29.395 10.3072 28.8345 7.70661 27.4044C4.58977 25.723 2.10395 22.8821 0.880155 19.5387C-0.267148 16.4658 -0.286269 12.9871 0.784547 9.89495C1.75975 7.07334 3.63368 4.58028 6.04302 2.84093C8.35675 1.12091 11.1676 0.173935 14.0359 0Z" fill="#B5B5D4"/>
<path d="M90.7148 1.00494H94.8069V28.6025C93.4492 28.6025 92.0725 28.6218 90.7148 28.5832C90.734 19.4033 90.7148 10.2041 90.7148 1.00494V1.00494Z" fill="#B5B5D4"/>
<path d="M37.0009 10.5714C39.5249 10.0883 42.2593 10.6294 44.3436 12.1561C46.2366 13.5089 47.5561 15.6348 47.9576 17.9539C48.4739 20.6402 47.8238 23.5777 46.1028 25.7036C44.248 28.0807 41.2076 29.3562 38.2438 29.1629C35.5285 29.0083 32.8897 27.6362 31.2835 25.3944C29.4669 22.9207 29.0271 19.5193 30.0214 16.6204C31.0157 13.5089 33.8266 11.1319 37.0009 10.5714V10.5714ZM37.5745 14.2433C36.5419 14.5139 35.5858 15.113 34.8975 15.9633C33.0427 18.2051 33.1574 21.8577 35.2034 23.9449C36.3698 25.1431 38.129 25.7036 39.7544 25.3751C41.265 25.1045 42.5844 24.0802 43.311 22.7274C44.5731 20.4276 44.2097 17.2582 42.2785 15.4609C41.0355 14.3013 39.219 13.8182 37.5745 14.2433Z" fill="#B5B5D4"/>
<path d="M57.2697 10.5713C60.1571 10.0108 63.3122 10.8225 65.473 12.8711C68.9914 16.0599 69.3738 22.0317 66.3717 25.7036C64.5551 28.0228 61.6104 29.2983 58.7039 29.163C55.9312 29.0857 53.1968 27.6942 51.5523 25.3944C49.6975 22.8627 49.296 19.384 50.3477 16.4271C51.3994 13.4122 54.1529 11.1124 57.2697 10.5713V10.5713ZM57.8434 14.2433C56.8108 14.5138 55.8547 15.1129 55.1664 15.944C53.3307 18.1471 53.4072 21.7418 55.3767 23.8483C56.5431 25.1045 58.3597 25.723 60.0424 25.3751C61.5339 25.0852 62.8724 24.0802 63.599 22.7274C64.842 20.4083 64.4786 17.2388 62.5282 15.4415C61.2853 14.2819 59.4687 13.8181 57.8434 14.2433Z" fill="#B5B5D4"/>
<path d="M74.4614 11.6923C76.6604 10.3008 79.586 9.91426 81.9571 11.1125C82.7029 11.441 83.3148 12.0015 83.9075 12.5619C83.9267 12.0401 83.9075 11.499 83.9267 10.9579C85.2078 10.9772 86.489 10.9579 87.7893 10.9772V28.0228C87.7701 30.5931 87.12 33.3181 85.2843 35.1927C83.2765 37.2606 80.1979 37.8984 77.4253 37.4732C74.4614 37.0287 71.88 34.8448 70.7327 32.0812C71.88 31.5208 73.0846 31.0763 74.2702 30.5545C74.9394 32.1392 76.2971 33.492 77.9989 33.8012C79.7008 34.1105 81.6703 33.6853 82.7794 32.2552C83.9649 30.7864 83.9649 28.7765 83.9075 26.9792C83.0279 27.8488 82.0145 28.6219 80.7907 28.9118C78.1328 29.6655 75.2071 28.7378 73.1611 26.9212C71.096 25.1045 69.8722 22.3022 69.9869 19.5193C70.0443 16.3692 71.8035 13.335 74.4614 11.6923V11.6923ZM78.4196 14.166C77.2532 14.3593 76.1632 15.0163 75.4175 15.9247C73.62 18.0892 73.62 21.5485 75.4366 23.6744C76.4692 24.9306 78.1328 25.6263 79.739 25.4524C81.2496 25.2978 82.6455 24.3315 83.3913 22.998C84.6533 20.7368 84.4429 17.664 82.7411 15.6927C81.6894 14.4752 80.0067 13.8761 78.4196 14.166V14.166Z" fill="#B5B5D4"/>
<path d="M99.7205 12.6779C102.015 10.5133 105.553 9.77896 108.497 10.9192C111.289 11.9821 113.068 14.6684 113.966 17.4321C109.817 19.1714 105.687 20.8914 101.537 22.6308C102.111 23.7324 102.99 24.7373 104.176 25.1432C105.839 25.7423 107.828 25.5297 109.224 24.4088C109.779 23.9836 110.218 23.4231 110.639 22.882C111.691 23.5971 112.742 24.2928 113.794 25.0079C112.303 27.269 109.798 28.8538 107.102 29.105C104.119 29.4722 100.944 28.3126 99.013 25.9549C95.8388 22.2443 96.1448 16.0213 99.7205 12.6779V12.6779ZM101.767 16.2532C101.116 17.2002 100.849 18.3597 100.868 19.5C103.64 18.3404 106.413 17.1808 109.186 16.0019C108.727 14.9197 107.618 14.2626 106.49 14.0887C104.673 13.7601 102.78 14.7458 101.767 16.2532V16.2532Z" fill="#B5B5D4"/>
</svg>
